<?xml version="1.0" standalone="no"?>
<!DOCTYPE svg PUBLIC "-//W3C//DTD SVG 20010904//EN"
 "http://www.w3.org/TR/2001/REC-SVG-20010904/DTD/svg10.dtd">
<svg version="1.0" xmlns="http://www.w3.org/2000/svg"
 width="25.000000pt" height="25.000000pt" viewBox="0 0 25.000000 25.000000"
 preserveAspectRatio="xMidYMid meet">

<g transform="translate(0.000000,25.000000) scale(0.100000,-0.100000)"
fill="#000000" stroke="none">
<path d="M24 217 c-2 -7 -3 -56 -2 -108 l3 -94 58 -3 57 -3 0 39 c0 21 -5 43
-12 50 -9 9 -9 15 0 24 7 7 12 22 12 35 0 21 25 43 49 43 19 0 12 -27 -8 -33
-14 -3 -18 -11 -14 -26 3 -12 11 -21 19 -21 8 0 11 -6 8 -15 -3 -8 -11 -13
-17 -12 -7 1 -10 -11 -8 -32 2 -20 -3 -37 -11 -43 -8 -5 1 -8 27 -6 l40 3 0
105 0 105 -98 3 c-75 2 -99 0 -103 -11z"/>
</g>
</svg>
